<svg width="32" height="33" viewBox="0 0 32 33" fill="none" xmlns="http://www.w3.org/2000/svg">
<path d="M9.99866 15.1667C11.1032 15.1667 11.9987 14.2713 11.9987 13.1667C11.9987 12.0621 11.1032 11.1667 9.99866 11.1667C8.89409 11.1667 7.99866 12.0621 7.99866 13.1667C7.99866 14.2713 8.89409 15.1667 9.99866 15.1667Z" fill="#FF9142"/>
<path d="M13.9987 19.1666L11.9987 16.5L7.99866 21.8333H23.9987L17.9987 13.8333L13.9987 19.1666Z" fill="#FF9142"/>
<path d="M26.6654 5.83331H5.33207C3.86141 5.83331 2.66541 7.02931 2.66541 8.49998V24.5C2.66541 25.9706 3.86141 27.1666 5.33207 27.1666H26.6654C28.1361 27.1666 29.3321 25.9706 29.3321 24.5V8.49998C29.3321 7.02931 28.1361 5.83331 26.6654 5.83331ZM5.33207 24.5V8.49998H26.6654L26.6681 24.5H5.33207Z" fill="#FF9142"/>
</svg>
